<svg width="95" height="94" viewBox="0 0 95 94" fill="none" xmlns="http://www.w3.org/2000/svg">
<path d="M30.7498 10.8889C37.4961 -3.16287 57.5039 -3.16287 64.2502 10.8889V10.8889C66.9165 16.4426 72.1987 20.3191 78.2917 21.2293V21.2293C93.6433 23.5224 99.9884 42.3308 89.0239 53.3175L88.4239 53.9187C84.0785 58.273 82.1009 64.4564 83.1133 70.5241L83.3088 71.6961C85.8399 86.8659 69.8184 98.3117 56.2883 90.9995V90.9995C50.8042 88.0357 44.1958 88.0357 38.7117 90.9995V90.9995C25.1816 98.3117 9.16013 86.8659 11.6912 71.6961L11.8867 70.5241C12.8991 64.4564 10.9216 58.273 6.57611 53.9187L5.9761 53.3175C-4.98841 42.3308 1.35672 23.5224 16.7083 21.2293V21.2293C22.8013 20.3191 28.0835 16.4426 30.7498 10.8889V10.8889Z" fill="#FFEBB0"/>
</svg>
